HIERARCHY
ROOT reference
{
  OFFSET 0 0 0
  CHANNELS 6 Xposition Yposition Zposition Zrotation Xrotation Yrotation
  JOINT Hips
  {
    OFFSET 0.275342 97.7085 247.782
    CHANNELS 6 Xposition Yposition Zposition Zrotation Xrotation Yrotation
    JOINT Spine
    {
      OFFSET 0 8.22665 0
      CHANNELS 6 Xposition Yposition Zposition Zrotation Xrotation Yrotation
      JOINT Spine1
      {
        OFFSET 0 24.451 0
        CHANNELS 6 Xposition Yposition Zposition Zrotation Xrotation Yrotation
        JOINT Neck
        {
          OFFSET 0 24.3506 2.21369
          CHANNELS 6 Xposition Yposition Zposition Zrotation Xrotation Yrotation
          JOINT Head
          {
            OFFSET 0 14.0455 -2.0065
            CHANNELS 6 Xposition Yposition Zposition Zrotation Xrotation Yrotation
            End Site
            {
              OFFSET 0 25.0812 0
            }
          }
        }
        JOINT LeftShoulder
        {
          OFFSET 4.0594 22.2558 -0.272799
          CHANNELS 6 Xposition Yposition Zposition Zrotation Xrotation Yrotation
          JOINT LeftArm
          {
            OFFSET 12.0298 0 0
            CHANNELS 6 Xposition Yposition Zposition Zrotation Xrotation Yrotation
            JOINT LeftForeArm
            {
              OFFSET 31.2689 0 0
              CHANNELS 6 Xposition Yposition Zposition Zrotation Xrotation Yrotation
              JOINT LeftHand
              {
                OFFSET 28.0275 0 0
                CHANNELS 6 Xposition Yposition Zposition Zrotation Xrotation Yrotation
                End Site
                {
                  OFFSET 15.0487 0 0
                }
              }
            }
          }
        }
        JOINT RightShoulder
        {
          OFFSET -3.96464 22.2558 -0.272799
          CHANNELS 6 Xposition Yposition Zposition Zrotation Xrotation Yrotation
          JOINT RightArm
          {
            OFFSET -12.0298 0 0
            CHANNELS 6 Xposition Yposition Zposition Zrotation Xrotation Yrotation
            JOINT RightForeArm
            {
              OFFSET -31.2689 0 0
              CHANNELS 6 Xposition Yposition Zposition Zrotation Xrotation Yrotation
              JOINT RightHand
              {
                OFFSET -28.0275 0 0
                CHANNELS 6 Xposition Yposition Zposition Zrotation Xrotation Yrotation
                End Site
                {
                  OFFSET -15.0487 0 0
                }
              }
            }
          }
        }
      }
    }
    JOINT LeftUpLeg
    {
      OFFSET 10.0325 0 0
      CHANNELS 6 Xposition Yposition Zposition Zrotation Xrotation Yrotation
      JOINT LeftLeg
      {
        OFFSET 0 -38.4033 0
        CHANNELS 6 Xposition Yposition Zposition Zrotation Xrotation Yrotation
        JOINT LeftFoot
        {
          OFFSET 0 -44.1642 0
          CHANNELS 6 Xposition Yposition Zposition Zrotation Xrotation Yrotation
          JOINT LeftToeBase
          {
            OFFSET 0 -6.52112 15.0487
            CHANNELS 6 Xposition Yposition Zposition Zrotation Xrotation Yrotation
            End Site
            {
              OFFSET 0 0 4.013
            }
          }
        }
      }
    }
    JOINT RightUpLeg
    {
      OFFSET -10.0325 0 0
      CHANNELS 6 Xposition Yposition Zposition Zrotation Xrotation Yrotation
      JOINT RightLeg
      {
        OFFSET 0 -38.4033 0
        CHANNELS 6 Xposition Yposition Zposition Zrotation Xrotation Yrotation
        JOINT RightFoot
        {
          OFFSET 0 -44.1642 0
          CHANNELS 6 Xposition Yposition Zposition Zrotation Xrotation Yrotation
          JOINT RightToeBase
          {
            OFFSET 0 -6.52112 15.0487
            CHANNELS 6 Xposition Yposition Zposition Zrotation Xrotation Yrotation
            End Site
            {
              OFFSET 0 0 4.013
            }
          }
        }
      }
    }
  }
}
MOTION
Frames:	4
Frame Time:	0.004
0 0 0 0 0 -0 -20.2013 85.418 -201.494 -0.374467 -0.895858 1.09721 0 8.22665 0 0.451317 -5.08459 0.693631 0 24.451 -2.84217e-014 -1.53545 -0.495134 0.668404 1.77636e-015 24.3506 2.21369 7.22693 20.0392 12.9522 -1.42109e-014 14.0455 -2.0065 -9.426 -1.61869 12.2951 4.0594 22.2558 -0.272799 19.9479 -0.409516 -5.51905 12.0298 2.84217e-014 0 -20.9788 1.86953 -0.407543 31.2689 0 0 -0.659361 -4.00919 5.8576 28.0275 -2.84217e-014 2.84217e-014 22.0586 -2.73593 6.35689 -3.96464 22.2558 -0.272799 -16.0625 -3.14456 3.72473 -12.0298 -2.84217e-014 0 16.0615 -1.17484 5.55487 -31.2689 0 0 0.042884 -3.52293 -3.04478 -28.0275 0 -2.84217e-014 -8.12302 -3.4647 -0.805715 10.0325 1.42109e-014 0 0.034552 7.46027 0.754077 1.77636e-015 -38.4033 0 -3.26996 2.17937 -4.27844 -3.55271e-015 -44.1642 -2.84217e-014 5.56038 -10.1742 18.8537 0 -6.52112 15.0487 9.93923e-017 -1.98785e-016 -0 -10.0325 -1.42109e-014 0 -1.29447 -1.74894 2.41683 0 -38.4033 0 1.58375 18.2906 0.60564 3.55271e-015 -44.1642 2.84217e-014 1.90592 -17.1831 -13.9831 1.42109e-014 -6.52112 15.0487 3.47873e-016 5.96354e-016 -0 
0 0 0 0 0 -0 -20.1978 85.418 -201.494 -0.374655 -0.885952 1.0973 0 8.22665 0 0.451317 -5.08459 0.693631 -3.55271e-015 24.451 0 -1.53545 -0.495134 0.668404 0 24.3506 2.21369 7.25068 20.0584 12.9538 -7.10543e-015 14.0455 -2.0065 -9.46399 -1.62931 12.2951 4.0594 22.2558 -0.272799 19.947 -0.418916 -5.51905 12.0298 0 0 -20.9788 1.86953 -0.407543 31.2689 -2.84217e-014 0 -0.659685 -3.99918 5.86754 28.0275 0 0 22.0212 -2.73611 6.32286 -3.96464 22.2558 -0.272799 -16.0625 -3.14456 3.72473 -12.0298 0 0 16.1198 -1.058 5.55238 -31.2689 0 0 -0.107067 -3.5654 -3.06019 -28.0275 0 -2.84217e-014 -8.04307 -3.5124 -0.796086 10.0325 1.42109e-014 0 0.033466 7.44348 0.764149 1.77636e-015 -38.4033 -2.84217e-014 -3.26914 2.17554 -4.30754 0 -44.1642 0 5.5665 -10.1447 18.8519 -7.10543e-015 -6.52112 15.0487 -9.93923e-017 -1.98785e-016 3.18055e-015 -10.0325 1.42109e-014 0 -1.29447 -1.74894 2.41683 3.55271e-015 -38.4033 0 1.57811 18.2905 0.623596 7.10543e-015 -44.1642 0 1.90947 -17.181 -14.0124 0 -6.52112 15.0487 5.96354e-016 -3.97569e-016 -0 
0 0 0 0 0 -0 -20.1919 85.418 -201.494 -0.371206 -0.898739 1.08532 -3.55271e-015 8.22665 -2.84217e-014 0.441759 -5.08459 0.693631 0 24.451 2.84217e-014 -1.52638 -0.495134 0.668404 1.77636e-015 24.3506 2.21369 7.23531 20.0647 12.9543 0 14.0455 -2.0065 -9.44552 -1.63621 12.2952 4.0594 22.2558 -0.272799 19.9464 -0.425809 -5.51906 12.0298 2.84217e-014 -2.84217e-014 -20.9788 1.86953 -0.407543 31.2689 -2.84217e-014 0 -0.659136 -3.99835 5.87653 28.0275 2.84217e-014 -2.84217e-014 22.0274 -2.73641 6.31402 -3.96464 22.2558 -0.272799 -16.073 -3.15101 3.71781 -12.0298 0 2.84217e-014 16.0625 -1.16703 5.54472 -31.2689 0 0 0.033095 -3.51824 -3.04278 -28.0275 0 2.84217e-014 -8.11829 -3.46017 -0.807464 10.0325 -1.42109e-014 -2.84217e-014 0.022798 7.47209 0.765269 0 -38.4033 0 -3.27196 2.15625 -4.2712 0 -44.1642 0 5.57313 -10.1459 18.8374 0 -6.52112 15.0487 -2.98177e-016 5.96354e-016 3.18055e-015 -10.0325 0 0 -1.29475 -1.7355 2.42622 -3.55271e-015 -38.4033 2.84217e-014 1.57526 18.2906 0.602549 -7.10543e-015 -44.1642 2.84217e-014 1.92492 -17.1832 -13.9812 0 -6.52112 15.0487 2.48481e-016 0 -1.59028e-015 
0 0 0 0 0 -0 -20.1849 85.418 -201.494 -0.375348 -0.902685 1.08199 0 8.22665 0 0.445039 -5.08459 0.693631 -1.77636e-015 24.451 0 -1.53391 -0.495134 0.668404 -1.77636e-015 24.3506 2.21369 7.23113 20.0664 12.9545 0 14.0455 -2.0065 -9.4367 -1.62488 12.2951 4.0594 22.2558 -0.272799 19.9471 -0.417848 -5.51905 12.0298 0 0 -20.9697 1.86953 -0.407543 31.2689 -2.84217e-014 2.84217e-014 -0.658225 -4.00837 5.87487 28.0275 0 -2.84217e-014 22.0121 -2.74573 6.32316 -3.96464 22.2558 -0.272799 -16.0735 -3.15842 3.71178 -12.0298 0 0 16.105 -1.08357 5.54188 -31.2689 2.84217e-014 0 -0.081297 -3.56013 -3.0553 -28.0275 0 0 -8.05853 -3.50482 -0.817634 10.0325 -1.42109e-014 0 0.020977 7.47913 0.740171 -8.88178e-016 -38.4033 0 -3.27218 2.16218 -4.25381 -3.55271e-015 -44.1642 2.84217e-014 5.59385 -10.1523 18.8462 -7.10543e-015 -6.52112 15.0487 -0 -3.97569e-016 -0 -10.0325 0 0 -1.29422 -1.72603 2.45698 3.55271e-015 -38.4033 -2.84217e-014 1.59259 18.281 0.584683 -3.55271e-015 -44.1642 0 1.90725 -17.1818 -13.9987 1.42109e-014 -6.52112 15.0487 2.48481e-016 -1.98785e-016 -1.59028e-015 
